<svg width="16" height="17" viewBox="0 0 16 17" fill="none" xmlns="http://www.w3.org/2000/svg">
<path d="M0 16.0014L0.64 14.0948C0.853333 13.4814 1.02667 12.8548 1.26667 12.2548C1.33219 12.1268 1.36636 11.9852 1.36636 11.8414C1.36636 11.6977 1.33219 11.556 1.26667 11.4281C0.50859 10.0286 0.199213 8.42974 0.38048 6.84843C0.561746 5.26712 1.22489 3.77979 2.28 2.5881C3.046 1.71491 4.00195 1.02892 5.07443 0.582828C6.14691 0.136733 7.30737 -0.0575981 8.46667 0.0147626C10.2238 0.0727461 11.9043 0.7478 13.2133 1.92143C14.4512 2.99882 15.3149 4.44149 15.68 6.04143C15.9849 7.33525 15.9481 8.6861 15.5733 9.96143C15.1151 11.564 14.1401 12.9703 12.8 13.9614C11.9127 14.6525 10.8836 15.1387 9.7864 15.3854C8.68917 15.632 7.55097 15.6329 6.45333 15.3881C5.75893 15.2484 5.08931 15.0058 4.46667 14.6681C4.4187 14.6455 4.36635 14.6338 4.31333 14.6338C4.26032 14.6338 4.20796 14.6455 4.16 14.6681L0.586667 15.7881L0 16.0014ZM2.02667 13.9881H2.14667L4.38667 13.2814C4.46449 13.255 4.54885 13.255 4.62667 13.2814C4.94667 13.4414 5.25333 13.6414 5.58667 13.7748C6.91509 14.3582 8.40606 14.4573 9.8 14.0548C10.6199 13.8358 11.3878 13.4552 12.0586 12.9355C12.7295 12.4158 13.2898 11.7673 13.7067 11.0281C14.534 9.58803 14.778 7.8857 14.3887 6.2712C13.9993 4.6567 13.0061 3.25276 11.6133 2.3481C10.3523 1.52999 8.84605 1.17573 7.35255 1.346C5.85905 1.51627 4.4712 2.20047 3.42667 3.28143C2.57165 4.15454 1.98809 5.25681 1.74667 6.45476C1.5569 7.27606 1.53586 8.12734 1.68484 8.95701C1.83381 9.78667 2.14969 10.5775 2.61333 11.2814C2.6886 11.4062 2.72838 11.5491 2.72838 11.6948C2.72838 11.8404 2.6886 11.9834 2.61333 12.1081C2.44 12.6948 2.25333 13.3348 2.02667 13.9881Z" fill="#1E292E"/>
<path d="M12.08 10.0413C12.0718 10.3252 11.9837 10.601 11.8256 10.8369C11.6676 11.0728 11.446 11.2592 11.1866 11.3747C10.9173 11.5218 10.6193 11.6088 10.3131 11.6295C10.007 11.6502 9.69995 11.6042 9.4133 11.4947C8.86431 11.2956 8.32584 11.0686 7.79996 10.8147C7.1206 10.4548 6.5146 9.9709 6.0133 9.38801C5.44453 8.76245 4.95629 8.06817 4.55996 7.32135C4.26269 6.80378 4.12362 6.21044 4.15996 5.61468C4.18738 5.30706 4.28005 5.00881 4.43179 4.73981C4.58353 4.47082 4.79086 4.23725 5.03996 4.05468C5.15484 3.97692 5.28824 3.93092 5.42663 3.92135C5.59524 3.90773 5.76468 3.90773 5.9333 3.92135C5.99496 3.92915 6.05301 3.95474 6.10036 3.99499C6.14772 4.03525 6.18233 4.08842 6.19996 4.14801C6.3333 4.45468 6.43996 4.76135 6.55996 5.08135C6.67996 5.40135 6.70663 5.50801 6.79996 5.70801C6.88201 5.81821 6.92176 5.95421 6.91197 6.09125C6.90218 6.22829 6.84351 6.35726 6.74663 6.45468C6.61826 6.62236 6.4755 6.77851 6.31996 6.92135C6.26306 6.96619 6.22477 7.0305 6.21246 7.10189C6.20015 7.17328 6.2147 7.24671 6.2533 7.30801C6.61428 7.96362 7.09346 8.54677 7.66663 9.02801C8.0775 9.33617 8.52545 9.5915 8.99996 9.78801C9.04912 9.83299 9.11333 9.85793 9.17996 9.85793C9.24659 9.85793 9.3108 9.83299 9.35996 9.78801L10.0266 9.02801C10.1733 8.86801 10.24 8.82801 10.4266 8.92135L12.0666 9.77468C12.0888 9.81525 12.1015 9.86031 12.1038 9.90649C12.1062 9.95267 12.098 9.99877 12.08 10.0413Z" fill="#1E292E"/>
</svg>
